<svg width="46" height="26" viewBox="0 0 46 26" fill="none" xmlns="http://www.w3.org/2000/svg">
<path d="M0.774902 15.5H5.7749V10.5H0.774902V15.5ZM0.774902 25.5H5.7749V20.5H0.774902V25.5ZM0.774902 5.5H5.7749V0.5H0.774902V5.5ZM10.7749 15.5H45.7749V10.5H10.7749V15.5ZM10.7749 25.5H45.7749V20.5H10.7749V25.5ZM10.7749 0.5V5.5H45.7749V0.5H10.7749ZM0.774902 15.5H5.7749V10.5H0.774902V15.5ZM0.774902 25.5H5.7749V20.5H0.774902V25.5ZM0.774902 5.5H5.7749V0.5H0.774902V5.5ZM10.7749 15.5H45.7749V10.5H10.7749V15.5ZM10.7749 25.5H45.7749V20.5H10.7749V25.5ZM10.7749 0.5V5.5H45.7749V0.5H10.7749Z" fill="#5BB0FF"/>
</svg>
