<svg width="36" height="36" viewBox="0 0 36 36" fill="none" xmlns="http://www.w3.org/2000/svg">
<path d="M25.6515 22.5126H24.0706L23.5103 21.9723C25.4714 19.691 26.6521 16.7293 26.6521 13.5074C26.6521 6.32333 20.8287 0.5 13.6446 0.5C6.46053 0.5 0.637207 6.32333 0.637207 13.5074C0.637207 20.6915 6.46053 26.5149 13.6446 26.5149C16.8665 26.5149 19.8282 25.3342 22.1095 23.3731L22.6498 23.9334V25.5143L32.6555 35.5L35.6372 32.5183L25.6515 22.5126ZM13.6446 22.5126C8.66179 22.5126 4.63949 18.4903 4.63949 13.5074C4.63949 8.52458 8.66179 4.50229 13.6446 4.50229C18.6275 4.50229 22.6498 8.52458 22.6498 13.5074C22.6498 18.4903 18.6275 22.5126 13.6446 22.5126Z" fill="#5BB0FF"/>
</svg>
